<svg width="87" height="86" viewBox="0 0 87 86" fill="none" xmlns="http://www.w3.org/2000/svg">
<g id="Category 3">
<path id="Vector" d="M43.2338 84.1987C66.183 84.1987 84.787 65.6448 84.787 42.7573C84.787 19.8699 66.183 1.31592 43.2338 1.31592C20.2847 1.31592 1.68066 19.8699 1.68066 42.7573C1.68066 65.6448 20.2847 84.1987 43.2338 84.1987Z" stroke="white" stroke-width="2.5" stroke-miterlimit="10"/>
<path id="Vector_2" d="M29.4572 4.11857C28.452 5.24593 27.6188 6.51477 26.9843 7.88425C26.3349 9.4613 26.0395 11.161 26.1188 12.864C26.1188 14.7611 26.3376 16.459 27.3743 18.081C28.1763 19.3923 29.3681 20.4218 30.7839 21.0262C32.1662 21.5472 33.6583 21.7103 35.1209 21.5005C35.2303 21.5005 35.0496 19.1291 35.1209 19.1291C33.628 19.3468 32.1039 19.1735 30.6983 18.6264C29.0677 17.8978 27.7461 16.6201 26.9653 15.0172C26.4781 14.044 26.1934 12.9825 26.1284 11.8966C26.0903 13.7178 26.0998 14.173 26.1284 13.2672C26.1284 13.1438 26.1283 13.0158 26.1711 12.8925C26.2044 12.6459 26.2472 12.4182 26.3043 12.1574C26.3996 11.7358 26.5219 11.3208 26.6705 10.9148C27.315 9.28148 28.2475 7.77644 29.4239 6.47094C29.5618 6.31443 29.4239 5.49395 29.4239 5.28528C29.4239 5.0766 29.4239 4.72563 29.4239 4.44581C29.4098 4.33084 29.4098 4.21458 29.4239 4.09961L29.4572 4.11857Z" fill="#EDB3BE"/>
<path id="Vector_3" d="M30.5508 21.6663C30.8921 22.8522 31.1699 24.0554 31.383 25.2707C31.6065 26.4754 31.7825 27.6895 31.8966 28.9084C31.9585 29.6103 31.9822 30.3311 32.0155 31.0188V29.9612V30.3359C32.0155 30.5018 32.0155 30.6678 32.0155 30.8101C31.987 31.2322 31.9489 31.6496 31.8966 32.0717C31.5257 34.9173 30.1561 37.4024 29.0909 40.0251C27.8602 43.0004 27.004 46.1164 26.542 49.3018C26.2679 51.5516 26.1551 53.818 26.2043 56.0838C26.2079 58.454 26.4003 60.8201 26.7798 63.1599C27.9448 70.1648 30.7363 76.8092 34.1555 83.0032C34.1432 82.8865 34.1432 82.7689 34.1555 82.6522C34.1555 82.3771 34.1555 82.0973 34.1555 81.8175C34.1555 81.5377 34.1555 81.2579 34.1555 80.978C34.1746 80.8634 34.1746 80.7464 34.1555 80.6318C31.0406 74.9833 28.4489 68.9744 27.1269 62.6429C26.6194 60.2594 26.3218 57.8361 26.2376 55.4009C26.2376 55.2633 26.2376 55.1258 26.2376 54.9883C26.221 55.2362 26.221 55.4849 26.2376 55.7328C26.2376 55.4767 26.2376 55.2206 26.2376 54.9693C26.2376 54.4096 26.2994 53.8547 26.347 53.2999C26.4326 52.3513 26.5578 51.4028 26.7227 50.4543C27.2756 47.4326 28.1689 44.483 29.3857 41.6613C29.8327 40.6037 30.3083 39.5604 30.7553 38.5028C31.5 36.7331 31.9281 34.8471 32.0203 32.9301C32.3255 28.3294 31.843 23.7105 30.5936 19.2712C30.6411 19.665 30.6411 20.0631 30.5936 20.4569C30.5439 20.8506 30.5439 21.2489 30.5936 21.6426L30.5508 21.6663Z" fill="#EDB3BE"/>
<path id="Vector_4" d="M35.373 51.5785C36.6712 53.7554 39.4103 54.8225 41.8356 54.8462V52.4748C41.6739 54.0304 41.6312 55.605 41.6169 57.1653C41.5093 60.5559 41.705 63.9493 42.2018 67.3052C42.4956 69.1724 43.0195 70.9963 43.7616 72.7355C43.7516 72.6203 43.7516 72.5045 43.7616 72.3893C43.7616 72.1095 43.7616 71.8296 43.7616 71.5498C43.8283 71.1574 43.8283 70.7566 43.7616 70.3642C42.6807 67.7472 42.0304 64.9735 41.8356 62.1499C41.769 61.4195 41.7167 60.6939 41.6834 59.9635C41.6834 59.6363 41.6549 59.3043 41.6454 58.977C41.6454 58.8205 41.6454 58.664 41.6454 58.5028C41.6454 58.0285 41.6169 58.645 41.6454 58.7968C41.6059 58.3115 41.6186 57.8234 41.6834 57.3408C41.6834 56.9282 41.7215 56.5204 41.7453 56.1077C41.769 55.6951 41.8023 55.2635 41.8451 54.8414C41.8689 54.6185 41.8451 52.4701 41.8451 52.4701C39.4199 52.4701 36.6807 51.3793 35.3825 49.2024C35.3946 49.3175 35.3946 49.4335 35.3825 49.5486C35.3825 49.8284 35.3825 50.1082 35.3825 50.3881C35.3825 50.6679 35.3825 50.9477 35.3825 51.2275C35.3634 51.3421 35.3634 51.4591 35.3825 51.5737L35.373 51.5785Z" fill="#EDB3BE"/>
<path id="Vector_5" d="M55.0462 19.4895C53.3723 21.9557 52.5972 25.1333 52.5496 28.0738C52.5021 31.0142 52.6447 33.708 53.8907 36.3829C54.7822 38.2115 55.7744 39.9896 56.8628 41.709C57.8188 43.1938 58.6309 44.7659 59.2881 46.4041C59.6068 47.2639 59.844 48.1515 59.9967 49.0553C60.0835 49.5878 60.1422 50.1245 60.1726 50.6631C60.1726 50.7912 60.1726 50.9192 60.1726 51.0425C60.2107 51.9341 60.2011 49.4632 60.1726 50.1224C60.1726 50.4876 60.1393 50.848 60.1061 51.2085C59.7745 54.1061 59.163 56.965 58.2799 59.7453C57.4905 62.4438 56.5632 65.1045 55.5408 67.7272C54.3497 70.8497 52.9892 73.9053 51.4654 76.8805C51.3986 77.2729 51.3986 77.6738 51.4654 78.0662C51.4654 78.346 51.4654 78.6258 51.4654 78.9056C51.4819 79.0205 51.4819 79.137 51.4654 79.2518C52.7256 76.8426 53.8193 74.3385 54.8465 71.8249C57.0007 66.5747 58.9695 61.0543 59.8683 55.4342C60.2564 52.9543 60.3458 50.4371 60.1346 47.9361C59.9833 46.0958 59.5 44.2979 58.708 42.629C56.9484 38.9013 54.0999 35.6573 53.0014 31.6166C52.8045 30.8684 52.6693 30.1054 52.5972 29.3353C52.5972 29.1361 52.5687 28.9369 52.5544 28.7377C52.5544 28.2635 52.5544 28.6144 52.5544 29.8617V29.5155C52.5782 29.1361 52.6114 28.7614 52.6638 28.382C52.821 27.2507 53.0935 26.1383 53.4769 25.0622C53.8503 23.9289 54.3681 22.8482 55.0177 21.8467C55.1556 21.6427 55.0177 20.8981 55.0177 20.661V19.8215C55.0177 19.7551 54.9749 19.5228 55.0177 19.4753L55.0462 19.4895Z" fill="#EDB3BE"/>
</g>
</svg>
