<svg width="87" height="87" viewBox="0 0 87 87" fill="none" xmlns="http://www.w3.org/2000/svg">
<g id="Category 4">
<path id="Vector" d="M43.2338 85.0515C66.183 85.0515 84.787 66.4976 84.787 43.6101C84.787 20.7226 66.183 2.1687 43.2338 2.1687C20.2847 2.1687 1.68066 20.7226 1.68066 43.6101C1.68066 66.4976 20.2847 85.0515 43.2338 85.0515Z" stroke="white" stroke-width="2.5" stroke-miterlimit="10"/>
<g id="Group 24">
<path id="Vector_2" d="M36.2419 43.5221C36.1496 44.0647 37.2198 43.6834 37.392 43.7819C36.2752 43.5399 37.5208 41.2129 35.7798 40.0503C34.4109 39.1363 32.8831 39.4617 32.3559 39.0049C31.7451 38.4759 32.1029 37.7931 32.439 37.2416C32.9593 36.3885 33.5318 35.5721 33.9801 34.6749C34.4427 33.7676 34.7628 32.7924 34.9289 31.7846C35.1763 30.2117 35.0152 28.7147 34.4025 27.26C33.8596 25.9708 32.602 23.4397 33.2022 20.1288C34.1255 15.0484 36.8033 13.5313 37.6653 12.6646C36.3281 11.2128 36.3281 8.24835 36.783 5.28394C35.2414 9.77247 30.8457 16.2208 30.8937 21.0672C30.9339 25.0938 32.282 28.2167 32.6218 29.1148C33.2105 30.6685 33.132 32.4159 32.637 33.9804C32.3337 34.9394 31.8789 35.8309 31.4879 36.7534C31.185 37.4672 30.8748 38.3235 31.2649 39.0645C31.8416 40.1586 33.2996 40.1928 34.3181 40.6009C34.8878 40.8292 35.3859 41.151 35.7031 41.6954C35.9898 42.1879 36.3075 42.9387 36.2419 43.5244C36.2179 43.6656 36.2812 43.1722 36.2419 43.5221Z" fill="#99CFD3"/>
<path id="Vector_3" d="M26.0447 75.4417C24.0735 72.5064 22.641 69.1202 22.1532 65.6063C21.7048 62.3852 22.1013 58.2187 25.2386 56.4229C26.9596 55.4379 29.2519 55.4462 31.173 55.5114C33.2846 55.5831 35.386 55.8467 37.4735 56.1589C39.5424 56.4692 41.6003 56.842 43.6627 57.1925C45.4635 57.4982 47.3008 57.8691 49.1293 57.9126C50.9578 57.956 52.5338 57.2859 53.7379 55.8985C54.3463 55.1997 54.839 54.4085 55.1976 53.5547C55.5423 52.7306 55.8809 51.6863 55.6424 50.79C55.3945 49.8595 54.3281 50.4543 53.7499 50.7165C52.8405 51.1285 51.9691 51.622 51.082 52.0775C49.3266 52.9789 47.4421 53.8812 45.4394 53.9954C44.587 54.0417 43.7179 53.9325 42.9284 53.5982C41.9093 53.1667 41.2561 52.3578 40.9295 51.3145C40.6029 50.2711 40.5167 49.1751 40.135 48.1484C39.8019 47.253 39.2825 46.4835 38.6247 45.7976C39.27 46.2434 38.9847 46.0848 39.6768 46.347C41.414 47.0717 41.5058 50.3983 42.3457 51.4805C42.5539 51.7514 42.8157 51.9767 43.1149 52.1423C43.4141 52.3079 43.7443 52.4102 44.0848 52.4429C46.0365 52.5354 47.5759 52.4484 49.1844 51.4625C50.0183 50.9537 51.0639 50.2984 51.9038 49.7975C52.6839 49.3351 53.2996 48.9706 54.1877 48.7482C55.7693 48.3426 56.5795 48.332 57.1989 49.8336C57.9365 51.6266 57.4862 52.7176 56.6893 54.3941C55.874 56.1149 55.2903 57.2207 53.6508 58.2201C52.1044 59.1631 50.9726 59.6251 49.1844 59.5336C47.1439 59.4277 45.1128 59.1862 43.1045 58.8107C41.048 58.4208 39.0277 58.0883 36.9671 57.7248C34.9246 57.3645 32.7848 57.0773 30.713 56.965C29.2232 56.8831 26.9782 56.9229 25.7297 57.9061C24.5391 58.8421 23.7862 61.2438 23.5546 62.6835C23.2896 64.3243 23.8386 65.9101 24.1708 67.5334C24.6299 69.7774 26.0317 71.9612 27.724 74.3739C27.724 74.3739 26.4982 75.2244 26.0447 75.4417Z" fill="#99CFD3"/>
<path id="Vector_4" d="M34.8716 27.0229C34.4086 26.1162 33.7873 25.0507 33.8642 25.0162C36.149 24.0029 41.2932 22.7895 44.7272 23.1283C44.7272 23.2799 44.5712 23.7796 44.5712 23.7796C41.79 23.9778 35.8231 25.2197 34.8716 27.0229Z" fill="#99CFD3"/>
<path id="Vector_5" d="M40.2325 28.7884C39.349 29.0275 38.4072 29.1418 37.4936 29.0707C37.5846 29.8253 35.8331 30.4043 35.834 30.4575C35.834 30.5853 35.9926 31.6686 35.9979 31.8024C39.2637 32.5583 43.0031 30.566 44.7034 27.7177C44.8801 27.4232 44.012 27.3386 44.1658 27.0229C42.9775 27.8334 41.6125 28.416 40.2342 28.7884H40.2325Z" fill="#99CFD3"/>
<path id="Vector_6" d="M35.8749 42.8333C37.9416 43.3407 40.1561 43.4125 42.246 42.9772C42.2548 43.0449 42.7775 43.6998 42.7499 43.7658C42.3331 44.7767 41.2771 45.9276 39.9332 46.5759C38.3619 47.3333 36.6169 45.9013 37.7158 44.5121C36.5884 44.5794 35.6209 43.9075 35.8749 42.8333Z" fill="#99CFD3"/>
<path id="Vector_7" d="M33.7434 30.6512C33.6645 30.0327 33.614 29.1507 33.029 28.9993C33.1487 29.9283 32.0006 30.8737 31.072 30.8737C31.072 30.8737 30.9481 31.8263 30.8933 31.923C31.8348 32.1384 32.8911 31.4303 33.8577 31.3889C33.7833 31.1494 33.7448 30.901 33.7434 30.6512C33.7777 30.8957 33.6731 30.0987 33.7434 30.6512Z" fill="#99CFD3"/>
<path id="Vector_8" d="M35.9518 5.28394C36.3279 5.28394 36.7906 5.28394 36.7906 5.28394C36.7906 7.94989 37.4003 11.744 38.0477 14.3146C39.113 18.5432 42.7242 23.9038 45.8342 26.6933C48.4957 29.0812 51.5498 30.9535 54.6177 32.7733C58.0621 34.8167 60.9031 36.5321 63.3661 39.7051C65.8159 42.8639 66.5907 45.3035 67.4543 48.762C68.4412 52.7145 67.977 55.0704 66.9602 59.1374C66.4554 61.1566 64.9839 64.0781 63.5017 68.0307C60.5373 75.4417 52.4024 81.2471 52.1381 81.8646C51.6441 81.8646 50.6062 82.4306 50.6559 82.3587C51.5037 81.1175 59.0551 76.4298 63.0076 68.0307C65.478 62.1019 67.6606 55.4306 67.0294 52.837C66.7244 49.1999 65.7079 45.6562 63.6664 42.5881C61.4402 39.2371 58.2322 36.7276 54.7617 34.7321C51.6995 32.9711 48.5246 31.4671 45.7177 29.3001C42.5077 26.8212 39.9163 23.675 38.2386 19.9899C36.7584 16.7385 36.0091 13.1883 35.8339 9.63291C35.7673 8.18233 35.8067 6.72887 35.9518 5.28394Z" fill="#99CFD3"/>
<path id="Vector_9" d="M36.822 28.1939C37.3579 28.7244 37.5836 29.0433 37.6152 29.3287C37.7033 29.5818 38.213 30.1571 38.6705 29.9388C39.0716 29.7479 38.4806 28.7849 37.565 28.0274C37.4577 27.9383 37.0442 28.244 36.822 28.1939Z" fill="#99CFD3"/>
</g>
</g>
</svg>
