<svg width="40" height="41" viewBox="0 0 40 41" fill="none" xmlns="http://www.w3.org/2000/svg">
<path d="M20 40.2839C31.0457 40.2839 40 31.3296 40 20.2839C40 9.23824 31.0457 0.283936 20 0.283936C8.9543 0.283936 0 9.23824 0 20.2839C0 31.3296 8.9543 40.2839 20 40.2839Z" fill="#84B2D1"/>
<path d="M19.0284 29.3784L16.7262 31.4578L16.1306 31.9877C15.9576 32.1534 15.7489 32.278 15.5201 32.352C15.2913 32.426 15.0484 32.4474 14.81 32.4147C14.5716 32.3819 14.3439 32.2959 14.144 32.163C13.9442 32.0301 13.7776 31.8539 13.6568 31.6477C13.4407 31.2528 13.2648 30.8375 13.1318 30.4081C12.5461 28.5486 11.9706 26.6858 11.4052 24.8197C11.3867 24.7527 11.3507 24.6917 11.3012 24.6426C11.2516 24.5935 11.1901 24.5581 11.1224 24.5397L6.30613 22.9402C5.83232 22.7797 5.41053 22.4967 5.08443 22.1204C4.90636 21.9256 4.77488 21.6937 4.69975 21.4417C4.62462 21.1897 4.60777 20.9242 4.65045 20.6649C4.69313 20.4056 4.79422 20.1591 4.94626 19.9438C5.0983 19.7285 5.29732 19.5499 5.52864 19.4211C6.07314 19.1159 6.64025 18.8519 7.225 18.6314C12.4957 16.4187 17.7764 14.2126 23.0672 12.0132L28.5298 9.75384C28.9968 9.51872 29.5255 9.43147 30.0443 9.50391C30.2952 9.54457 30.5352 9.63498 30.75 9.76971C30.9647 9.90443 31.1497 10.0807 31.294 10.2879C31.4383 10.4952 31.5387 10.7292 31.5894 10.9758C31.6402 11.2224 31.6401 11.4767 31.5892 11.7233C31.4075 12.8729 31.1651 14.0126 30.9329 15.1523C30.2597 18.5647 29.5866 21.9705 28.9135 25.3695C28.4995 27.4989 28.1057 29.6484 27.6311 31.7678C27.5408 32.187 27.3232 32.5687 27.0073 32.8618C26.6914 33.1549 26.2925 33.3452 25.8641 33.4073C25.4917 33.498 25.1031 33.5029 24.7285 33.4214C24.3538 33.34 24.0031 33.1744 23.7033 32.9374C22.209 31.7877 20.6743 30.6581 19.2102 29.5184L19.0284 29.3784ZM15.2117 30.0182L15.4742 29.7983L18.7256 26.8491C18.877 26.7191 18.9578 26.7191 19.0991 26.8491C21.0243 28.3153 22.9562 29.7816 24.8948 31.2479C24.9826 31.3197 25.0814 31.3771 25.1876 31.4178C25.2373 31.443 25.2927 31.4554 25.3486 31.4539C25.4044 31.4524 25.459 31.437 25.5073 31.4091C25.5556 31.3812 25.5959 31.3418 25.6248 31.2944C25.6536 31.247 25.67 31.1932 25.6723 31.1379L26.9445 24.6797L29.3376 12.533C29.3982 12.2431 29.4486 11.9433 29.5193 11.5834L6.97257 20.9807L7.16436 21.0707L12.8894 22.9702C12.9964 22.9932 13.1081 22.9753 13.2024 22.9202L25.5612 15.3423C25.6787 15.2694 25.8088 15.2186 25.9449 15.1923C26.0357 15.1923 26.1872 15.1923 26.2276 15.2623C26.2501 15.3145 26.2617 15.3706 26.2617 15.4273C26.2617 15.484 26.2501 15.54 26.2276 15.5922C26.1623 15.7121 26.073 15.8176 25.9651 15.9021L24.2284 17.4917L16.1508 24.9896C16.0765 25.0629 16.0271 25.1572 16.0094 25.2596C15.868 26.1093 15.7266 26.9591 15.5954 27.8088C15.4641 28.6586 15.3328 29.2385 15.2117 30.0182Z" fill="white"/>
</svg>
