<svg width="40" height="41" viewBox="0 0 40 41" fill="none" xmlns="http://www.w3.org/2000/svg">
<path d="M20 40.2839C31.0457 40.2839 40 31.3296 40 20.2839C40 9.23823 31.0457 0.283936 20 0.283936C8.9543 0.283936 0 9.23823 0 20.2839C0 31.3296 8.9543 40.2839 20 40.2839Z" fill="#4C6E9A"/>
<path d="M23.0212 19.5209C23.1077 19.4524 23.1895 19.3784 23.2662 19.2993C24.0689 18.3561 24.7544 17.3218 25.3083 16.2182C25.5534 15.755 25.7576 15.2818 25.9925 14.8186C26.1048 14.5769 26.2375 14.3454 26.3703 14.1138C26.5024 13.8835 26.6961 13.6932 26.93 13.5637C27.164 13.4341 27.4295 13.3701 27.6977 13.3787H32.4864C32.6734 13.375 32.8598 13.4023 33.0378 13.4593C33.2124 13.5056 33.3749 13.5884 33.5144 13.7019C33.6539 13.8154 33.7672 13.957 33.8466 14.1173C33.9259 14.2776 33.9694 14.4527 33.9743 14.631C33.9792 14.8093 33.9454 14.9866 33.875 15.1509C33.7511 15.6366 33.5477 16.0992 33.2726 16.5203C32.4864 17.6883 31.6491 18.8261 30.8221 19.9639L29.801 21.4038C29.7703 21.4312 29.7459 21.4645 29.7291 21.5018C29.7123 21.5391 29.7037 21.5795 29.7037 21.6203C29.7037 21.661 29.7123 21.7014 29.7291 21.7387C29.7459 21.776 29.7703 21.8094 29.801 21.8368C30.1992 22.2395 30.5975 22.6523 30.9855 23.0652C31.6491 23.7499 32.3332 24.4245 33.0276 25.1394C33.3249 25.4852 33.5755 25.8677 33.7729 26.2772C33.903 26.4858 33.9798 26.7224 33.9965 26.9667C34.0133 27.2111 33.9695 27.4558 33.869 27.6797C33.7685 27.9036 33.6143 28.1001 33.4197 28.2522C33.2251 28.4043 32.9959 28.5075 32.7519 28.5528C32.4434 28.6414 32.1235 28.6855 31.8022 28.6837C30.577 28.6837 29.3619 28.6837 28.1367 28.6837C27.4559 28.6926 26.7952 28.4563 26.2784 28.0192C25.5841 27.4352 24.9408 26.7907 24.2363 26.1665L23.4908 25.4616C23.3275 25.3206 23.1845 25.3609 23.1335 25.5523C23.0824 25.7436 23.0008 26.1967 22.9395 26.5592C22.9395 26.7303 22.8885 26.9115 22.8375 27.0827C22.7862 27.3161 22.6584 27.5265 22.4739 27.6812C22.2893 27.8359 22.0583 27.9263 21.8164 27.9386C20.6422 27.9386 19.4781 27.9386 18.3039 27.9386C16.7443 27.9032 15.2346 27.3893 13.9849 26.4685C13.1178 25.8165 12.3449 25.0509 11.6875 24.1929C10.047 22.133 8.60778 19.9248 7.38892 17.5977C6.97029 16.8425 6.58224 16.0672 6.19424 15.2919C6.09151 15.08 6.02916 14.8514 6.0104 14.6173C5.98841 14.4583 6.00139 14.2966 6.04841 14.143C6.09544 13.9895 6.17547 13.8477 6.28299 13.7274C6.39051 13.607 6.52308 13.5108 6.67162 13.4455C6.82015 13.3801 6.98123 13.3471 7.14388 13.3486C8.6142 13.3486 10.0742 13.2579 11.5446 13.2982C11.8038 13.3208 12.054 13.4026 12.2756 13.5372C12.4971 13.6717 12.6838 13.8554 12.8209 14.0735C12.9565 14.2773 13.0727 14.493 13.168 14.7179C13.818 16.1236 14.59 17.4712 15.4756 18.7456C15.639 18.9872 15.8432 19.2087 16.027 19.4302C16.0802 19.4887 16.1383 19.5426 16.2006 19.5914C16.2418 19.5081 16.2726 19.4202 16.2925 19.3296C16.4455 18.1833 16.4455 17.0222 16.2925 15.8759C16.2719 15.7245 16.2052 15.5829 16.1013 15.4696C15.9974 15.3564 15.8611 15.2768 15.7104 15.2415C15.5917 15.2103 15.4756 15.1699 15.3633 15.1207C15.252 15.084 15.1502 15.0241 15.0645 14.9451C14.9788 14.8661 14.9114 14.7698 14.8668 14.6628C14.8223 14.5558 14.8015 14.4406 14.8061 14.325C14.8108 14.2094 14.8407 14.0961 14.8936 13.9929C15.0631 13.6301 15.3458 13.3302 15.7003 13.1371C16.1789 12.8445 16.73 12.6877 17.2931 12.684C18.5081 12.684 19.713 12.684 20.9281 12.684C21.1888 12.6958 21.4465 12.7432 21.6939 12.8249C22.0641 12.9138 22.394 13.1211 22.6323 13.4143C22.8706 13.7076 23.0037 14.0703 23.011 14.446C23.011 15.2113 23.011 15.9867 23.011 16.7519C23.011 17.5172 23.011 18.2522 23.011 19.0074C23.011 19.1383 23.011 19.2792 23.011 19.4101L23.0212 19.5209ZM7.64418 14.8388C7.72587 15.0301 7.78709 15.1711 7.85857 15.312C8.86325 17.2799 9.98146 19.1895 11.2077 21.0313C11.9796 22.2432 12.876 23.3735 13.8828 24.4044C14.8076 25.3819 16.0232 26.0447 17.3544 26.2974C18.167 26.4015 18.9854 26.4552 19.8048 26.4584C20.3052 26.4584 20.8259 26.4584 21.3364 26.4584C21.3364 26.3175 21.3365 26.1765 21.3875 26.0356C21.437 25.4858 21.6383 24.96 21.9695 24.5151C22.1014 24.3335 22.2704 24.1812 22.4657 24.0679C22.6609 23.9546 22.878 23.8828 23.1031 23.8572C23.3281 23.8316 23.5561 23.8527 23.7724 23.9192C23.9887 23.9857 24.1884 24.0961 24.3588 24.2433C24.8183 24.6561 25.2675 25.079 25.7168 25.5119C26.166 25.9449 26.5133 26.2974 26.9319 26.68C27.2215 26.9608 27.6082 27.1227 28.0142 27.1331C29.3722 27.1331 30.7302 27.1331 32.0984 27.1331C32.3536 27.1331 32.3945 27.0424 32.2516 26.831C32.0387 26.4785 31.7997 26.142 31.5367 25.8241C30.9649 25.1998 30.3523 24.6158 29.7703 24.0016C29.1883 23.3874 28.8208 22.9947 28.3817 22.5315C28.2117 22.332 28.1015 22.0896 28.0636 21.8317C28.0258 21.5737 28.0617 21.3104 28.1673 21.0715C28.2411 20.8655 28.3406 20.6693 28.4635 20.4875C28.9127 19.8632 29.4028 19.2591 29.8419 18.6348C30.5975 17.5675 31.3428 16.5002 32.0779 15.4127C32.1861 15.2238 32.275 15.0248 32.3434 14.8186H31.4142L27.8814 14.8891C27.6772 14.8891 27.5853 14.9898 27.4934 15.161C27.0646 16.047 26.646 16.9432 26.1661 17.7991C25.6369 18.831 24.948 19.7754 24.124 20.5983C23.8574 20.8307 23.5581 21.0239 23.2356 21.1722C23.0709 21.2508 22.8867 21.2802 22.7053 21.257C22.524 21.2337 22.3533 21.1587 22.2145 21.0413C22.0064 20.8961 21.8323 20.7086 21.7037 20.4915C21.5752 20.2745 21.4952 20.0327 21.4692 19.7826C21.4692 19.2993 21.3977 18.7758 21.3875 18.3328C21.3875 17.1547 21.3875 15.9866 21.3875 14.8186C21.3875 14.3957 21.2854 14.285 20.8463 14.2749C19.764 14.2749 18.692 14.2044 17.6097 14.1842C17.4346 14.2009 17.2607 14.2278 17.0889 14.2648C17.5342 14.6914 17.791 15.2738 17.8036 15.8859C17.8649 16.9432 17.8751 18.0004 17.8036 19.0577C17.7849 19.5263 17.6776 19.9873 17.4872 20.417C17.4171 20.6244 17.2946 20.8108 17.1314 20.9587C16.9682 21.1066 16.7697 21.2112 16.5542 21.2625C16.3388 21.3139 16.1135 21.3103 15.8999 21.2523C15.6862 21.1942 15.491 21.0835 15.3326 20.9305C14.9102 20.5845 14.5361 20.185 14.2197 19.7424C13.2391 18.3955 12.4105 16.947 11.7487 15.4228C11.6872 15.2092 11.5508 15.0241 11.3638 14.9006C11.1768 14.777 10.9513 14.723 10.7277 14.7481C9.8904 14.7481 9.04294 14.7481 8.19547 14.7481C8.0321 14.7985 7.85861 14.8287 7.64418 14.8388Z" fill="white"/>
</svg>
