<svg width="21" height="19" viewBox="0 0 21 19" fill="none" xmlns="http://www.w3.org/2000/svg">
<path d="M11.2714 15.8208L9.5448 17.3804L9.09803 17.7778C8.96834 17.9021 8.81178 17.9955 8.64017 18.051C8.46857 18.1065 8.28643 18.1226 8.10762 18.098C7.92881 18.0735 7.75802 18.0089 7.60816 17.9093C7.4583 17.8096 7.33334 17.6774 7.24274 17.5228C7.08064 17.2266 6.94871 16.9152 6.84894 16.5931C6.40972 15.1985 5.9781 13.8014 5.55402 12.4018C5.54012 12.3516 5.51318 12.3058 5.476 12.269C5.43882 12.2322 5.39266 12.2056 5.34196 12.1918L1.72972 10.9922C1.37436 10.8718 1.05802 10.6595 0.813444 10.3773C0.679888 10.2312 0.581284 10.0573 0.524935 9.8683C0.468586 9.67932 0.455949 9.4802 0.487958 9.28573C0.519967 9.09125 0.595785 8.90638 0.709817 8.74489C0.82385 8.5834 0.973114 8.44942 1.1466 8.35288C1.55498 8.12393 1.98031 7.92594 2.41887 7.76056C6.37187 6.10102 10.3324 4.44648 14.3005 2.79694L18.3974 1.1024C18.7477 0.926061 19.1443 0.860621 19.5334 0.914951C19.7215 0.945448 19.9015 1.01325 20.0626 1.1143C20.2236 1.21534 20.3624 1.34753 20.4706 1.50297C20.5788 1.65841 20.6542 1.83388 20.6922 2.01886C20.7303 2.20384 20.7302 2.39452 20.692 2.57947C20.5557 3.44173 20.3739 4.29649 20.1998 5.15125C19.6949 7.71054 19.1901 10.2649 18.6852 12.8142C18.3747 14.4112 18.0794 16.0233 17.7235 17.6128C17.6558 17.9272 17.4925 18.2136 17.2556 18.4334C17.0187 18.6532 16.7195 18.796 16.3982 18.8425C16.1189 18.9105 15.8274 18.9142 15.5465 18.8531C15.2655 18.792 15.0024 18.6678 14.7776 18.4901C13.6569 17.6278 12.5058 16.7806 11.4078 15.9258L11.2714 15.8208ZM8.40888 16.3007L8.60578 16.1357L11.0443 13.9238C11.1579 13.8264 11.2185 13.8264 11.3245 13.9238C12.7684 15.0235 14.2173 16.1232 15.6713 17.2229C15.7371 17.2768 15.8112 17.3199 15.8908 17.3504C15.9281 17.3693 15.9696 17.3786 16.0115 17.3774C16.0534 17.3763 16.0944 17.3647 16.1306 17.3438C16.1668 17.3229 16.1971 17.2933 16.2187 17.2578C16.2403 17.2223 16.2526 17.1819 16.2544 17.1405L17.2085 12.2968L19.0033 3.1868C19.0487 2.96936 19.0866 2.74446 19.1396 2.47453L2.22955 9.52255L2.37339 9.59005L6.6672 11.0146C6.74743 11.0319 6.83123 11.0185 6.90191 10.9772L16.171 5.29371C16.2591 5.23907 16.3567 5.20098 16.4588 5.18127C16.5269 5.18127 16.6405 5.18128 16.6708 5.23376C16.6877 5.27287 16.6964 5.31494 16.6964 5.35746C16.6964 5.39999 16.6877 5.44205 16.6708 5.48116C16.6219 5.57111 16.5549 5.65021 16.4739 5.71359L15.1714 6.90578L9.1132 12.5292C9.05748 12.5842 9.02042 12.6549 9.00716 12.7317C8.90115 13.369 8.7951 14.0063 8.69665 14.6436C8.59821 15.281 8.49976 15.7159 8.40888 16.3007Z" fill="white"/>
</svg>
