<svg width="22" height="13" viewBox="0 0 22 13" fill="none" xmlns="http://www.w3.org/2000/svg">
<path d="M13.2659 5.42775C13.3307 5.37637 13.3921 5.32085 13.4497 5.26159C14.0517 4.55417 14.5658 3.7784 14.9813 2.95074C15.165 2.60336 15.3182 2.24841 15.4944 1.90103C15.5786 1.71978 15.6782 1.54613 15.7777 1.37244C15.8768 1.19971 16.022 1.05699 16.1975 0.959817C16.373 0.862641 16.5721 0.814678 16.7733 0.821125H20.3648C20.5051 0.818339 20.6449 0.838773 20.7783 0.881552C20.9093 0.916314 21.0312 0.978353 21.1358 1.06348C21.2404 1.14861 21.3254 1.25485 21.3849 1.37506C21.4444 1.49528 21.4771 1.62664 21.4807 1.76035C21.4844 1.89407 21.459 2.02703 21.4062 2.15025C21.3133 2.51457 21.1607 2.86147 20.9545 3.17728C20.3648 4.05329 19.7368 4.90668 19.1165 5.76003L18.3507 6.83993C18.3277 6.86047 18.3094 6.88549 18.2968 6.91345C18.2842 6.94142 18.2777 6.97168 18.2777 7.00227C18.2777 7.03287 18.2842 7.06313 18.2968 7.09109C18.3094 7.11906 18.3277 7.14412 18.3507 7.16466C18.6494 7.46673 18.9481 7.77633 19.2391 8.08595C19.7369 8.59948 20.2499 9.10544 20.7707 9.64162C20.9937 9.901 21.1816 10.1879 21.3297 10.495C21.4273 10.6514 21.4848 10.8289 21.4974 11.0121C21.5099 11.1954 21.4771 11.3789 21.4018 11.5469C21.3264 11.7148 21.2107 11.8622 21.0648 11.9763C20.9188 12.0903 20.7469 12.1677 20.5639 12.2017C20.3325 12.2681 20.0926 12.3012 19.8517 12.2999C18.9327 12.2999 18.0215 12.2999 17.1025 12.2999C16.5919 12.3065 16.0964 12.1293 15.7088 11.8015C15.1881 11.3635 14.7056 10.8801 14.1772 10.4119L13.6181 9.88329C13.4956 9.77756 13.3884 9.80779 13.3501 9.95127C13.3118 10.0948 13.2506 10.4346 13.2047 10.7065C13.2047 10.8348 13.1664 10.9707 13.1281 11.0991C13.0897 11.2742 12.9938 11.4319 12.8554 11.548C12.717 11.664 12.5437 11.7318 12.3623 11.741C11.4817 11.741 10.6086 11.741 9.72794 11.741C8.55822 11.7145 7.42598 11.3291 6.48867 10.6385C5.83834 10.1494 5.25866 9.57523 4.76564 8.93175C3.53527 7.38685 2.45583 5.73067 1.54169 3.98533C1.22772 3.41895 0.936683 2.83747 0.645682 2.25599C0.568636 2.0971 0.521868 1.9256 0.507799 1.75003C0.491309 1.63083 0.501041 1.5095 0.53631 1.39433C0.57158 1.27917 0.6316 1.17288 0.71224 1.08261C0.79288 0.992339 0.892309 0.920204 1.00371 0.871181C1.11511 0.822159 1.23592 0.797389 1.35791 0.798493C2.46065 0.798493 3.55568 0.730536 4.65842 0.760744C4.85282 0.777662 5.04052 0.839015 5.20668 0.939951C5.37284 1.04089 5.51288 1.1786 5.61565 1.3422C5.71739 1.49503 5.80453 1.65684 5.876 1.82553C6.36347 2.87977 6.94253 3.89045 7.60669 4.84625C7.72922 5.02749 7.8824 5.19362 8.02025 5.35976C8.06013 5.40357 8.10371 5.44401 8.15046 5.48062C8.18132 5.41813 8.20444 5.3522 8.21936 5.28427C8.33413 4.42455 8.33413 3.55372 8.21936 2.694C8.20392 2.58048 8.15389 2.47422 8.07596 2.38929C7.99803 2.30435 7.89581 2.24471 7.78281 2.21824C7.69375 2.19479 7.60672 2.1645 7.52246 2.12762C7.43903 2.1001 7.36265 2.05514 7.29839 1.99589C7.23414 1.93663 7.18356 1.86443 7.15013 1.78418C7.11671 1.70393 7.10114 1.6175 7.10461 1.53081C7.10808 1.44412 7.1305 1.35918 7.17023 1.28177C7.29731 1.00966 7.50932 0.78476 7.77523 0.639889C8.1342 0.420482 8.5475 0.302889 8.96982 0.300049C9.88111 0.300049 10.7848 0.300049 11.6961 0.300049C11.8916 0.3089 12.0849 0.344493 12.2704 0.405785C12.5481 0.472441 12.7955 0.62787 12.9742 0.847812C13.1529 1.06776 13.2528 1.33983 13.2582 1.62161C13.2582 2.19555 13.2582 2.77707 13.2582 3.35101C13.2582 3.92494 13.2582 4.47622 13.2582 5.0426C13.2582 5.14078 13.2582 5.24647 13.2582 5.34465L13.2659 5.42775ZM1.73314 1.91615C1.7944 2.05963 1.84032 2.16538 1.89392 2.2711C2.64744 3.74704 3.4861 5.17919 4.40574 6.56052C4.98468 7.4695 5.65701 8.31724 6.41211 9.09036C7.10568 9.82352 8.01737 10.3206 9.01581 10.5101C9.62528 10.5882 10.239 10.6285 10.8536 10.6309C11.2289 10.6309 11.6194 10.6309 12.0023 10.6309C12.0023 10.5252 12.0024 10.4195 12.0406 10.3137C12.0778 9.90145 12.2287 9.50706 12.4771 9.17341C12.5761 9.03723 12.7028 8.92298 12.8492 8.838C12.9957 8.75302 13.1585 8.6992 13.3273 8.67999C13.4961 8.66079 13.6671 8.67664 13.8293 8.7265C13.9915 8.77637 14.1413 8.85916 14.2691 8.96955C14.6137 9.27917 14.9506 9.59631 15.2876 9.92104C15.6245 10.2458 15.885 10.5101 16.1989 10.7971C16.4161 11.0076 16.7062 11.1291 17.0106 11.1369C18.0291 11.1369 19.0476 11.1369 20.0738 11.1369C20.2652 11.1369 20.2959 11.0689 20.1887 10.9103C20.029 10.646 19.8498 10.3936 19.6526 10.1551C19.2237 9.68693 18.7643 9.24893 18.3278 8.78827C17.8913 8.32761 17.6156 8.03311 17.2863 7.68573C17.1587 7.53608 17.0761 7.3543 17.0477 7.16083C17.0193 6.96736 17.0463 6.7699 17.1255 6.59071C17.1809 6.4362 17.2555 6.28906 17.3476 6.15269C17.6846 5.68448 18.0521 5.2314 18.3814 4.76319C18.9481 3.9627 19.5071 3.1622 20.0584 2.3466C20.1396 2.20494 20.2063 2.05567 20.2576 1.90103H19.5607L16.9111 1.95389C16.7579 1.95389 16.689 2.02943 16.6201 2.15781C16.2984 2.82237 15.9845 3.49447 15.6246 4.13638C15.2277 4.91035 14.711 5.61866 14.093 6.2358C13.893 6.41008 13.6686 6.55501 13.4267 6.66621C13.3032 6.72514 13.165 6.74726 13.029 6.72982C12.893 6.71238 12.765 6.65614 12.6609 6.56803C12.5048 6.45912 12.3742 6.31855 12.2778 6.15574C12.1814 5.99292 12.1214 5.81162 12.1019 5.62406C12.1019 5.26157 12.0483 4.86892 12.0406 4.53664C12.0406 3.65308 12.0406 2.77704 12.0406 1.90103C12.0406 1.58385 11.964 1.5008 11.6348 1.49325C10.823 1.49325 10.019 1.44036 9.20726 1.42526C9.07597 1.43772 8.94555 1.45791 8.8167 1.48569C9.15067 1.80561 9.34325 2.24246 9.35271 2.70152C9.39866 3.49445 9.40632 4.28741 9.35271 5.08035C9.33864 5.43179 9.25818 5.77754 9.11537 6.09983C9.06283 6.25536 8.97097 6.39516 8.84858 6.50609C8.72618 6.61701 8.57725 6.69545 8.41567 6.73397C8.25409 6.77248 8.08516 6.76982 7.9249 6.72627C7.76464 6.68272 7.61824 6.59968 7.49947 6.48498C7.18267 6.22546 6.90204 5.92584 6.66478 5.59387C5.92936 4.58367 5.30791 3.49735 4.81154 2.35416C4.76542 2.194 4.66313 2.05519 4.52287 1.96251C4.38261 1.86984 4.21349 1.8293 4.04575 1.84816C3.4178 1.84816 2.78221 1.84816 2.1466 1.84816C2.02408 1.88592 1.89395 1.90859 1.73314 1.91615Z" fill="white"/>
</svg>
