<svg width="18" height="12" viewBox="0 0 18 12" fill="none" xmlns="http://www.w3.org/2000/svg">
<path d="M9 11.25C3.1116 11.25 0.192219 6.11664 0.0708592 5.89825C0.024388 5.81465 0 5.72058 0 5.62494C0 5.5293 0.024388 5.43523 0.0708592 5.35163C0.192219 5.13338 3.1116 0 9 0C14.8884 0 17.8078 5.13338 17.9291 5.35178C17.9756 5.43537 18 5.52944 18 5.62508C18 5.72073 17.9756 5.81479 17.9291 5.89839C17.8078 6.11664 14.8884 11.25 9 11.25ZM1.22441 5.62417C1.8935 6.63822 4.52052 10.125 9 10.125C13.4937 10.125 16.109 6.64103 16.7756 5.62585C16.1065 4.6118 13.4795 1.125 9 1.125C4.50632 1.125 1.89097 4.60899 1.22441 5.62417ZM9 9.00002C7.13897 9.00002 5.62499 7.48604 5.62499 5.62501C5.62499 3.76398 7.13897 2.25 9 2.25C10.861 2.25 12.375 3.76398 12.375 5.62501C12.375 7.48604 10.861 9.00002 9 9.00002ZM9 3.37501C7.7594 3.37501 6.75 4.38441 6.75 5.62501C6.75 6.86561 7.7594 7.87501 9 7.87501C10.2406 7.87501 11.25 6.86561 11.25 5.62501C11.25 4.38441 10.2406 3.37501 9 3.37501Z" fill="white"/>
</svg>
