<svg width="87" height="86" viewBox="0 0 87 86" fill="none" xmlns="http://www.w3.org/2000/svg">
<g id="Category 2">
<path id="Vector" d="M43.2338 84.3454C66.183 84.3454 84.787 65.7915 84.787 42.904C84.787 20.0166 66.183 1.46265 43.2338 1.46265C20.2847 1.46265 1.68066 20.0166 1.68066 42.904C1.68066 65.7915 20.2847 84.3454 43.2338 84.3454Z" stroke="white" stroke-width="2.5" stroke-miterlimit="10"/>
<path id="Vector_2" d="M38.6592 12.1336C38.7162 12.9067 38.6877 10.782 38.6592 11.1472C38.6306 11.5124 38.6116 11.9107 38.5498 12.2901C38.4426 13.1551 38.1349 13.9832 37.651 14.7089C36.4288 16.4021 34.3887 15.9894 32.5864 15.8614C28.4777 15.5721 23.5511 15.3871 20.1319 18.0999C18.2583 19.5843 17.4641 21.7091 17.0456 23.9903C16.6428 26.3434 16.3886 28.7194 16.2847 31.1043C15.9566 36.6674 16.0042 42.2401 15.8092 47.8032C15.7882 49.8666 15.6293 51.9263 15.3337 53.9687C15.1534 54.8573 14.9054 55.7309 14.5918 56.5819C13.9688 58.422 13.3649 60.267 12.7942 62.1261C12.4962 63.1031 12.2093 64.0848 11.9335 65.0713C11.7766 65.6261 12.0857 66.3043 11.9335 66.8498C12.4946 64.8389 13.1129 62.8422 13.7596 60.855C14.2351 59.4322 14.7963 58.0569 15.1529 56.6246C15.5378 54.78 15.7433 52.9027 15.7664 51.0187C16.0422 45.3797 15.9709 39.7312 16.2419 34.0922C16.3343 31.451 16.582 28.8174 16.9838 26.2051C17.3785 23.8765 18.068 21.638 19.9274 20.0397C23.3466 17.1135 28.4872 17.3174 32.7101 17.6209C33.6239 17.7439 34.5469 17.7868 35.4683 17.7489C35.9575 17.6963 36.4276 17.5299 36.8406 17.263C37.2535 16.9961 37.5979 16.6362 37.846 16.2123C38.7971 14.6188 38.7305 12.589 38.702 10.7915C38.702 10.6587 38.702 10.5259 38.702 10.3931C38.7305 10.8152 38.6592 11.5692 38.702 12.1052L38.6592 12.1336Z" fill="#EDB3BE"/>
<path id="Vector_3" d="M22.1671 52.0855C23.5843 55.823 24.6339 59.6891 25.3009 63.6291C25.4151 64.3595 25.5102 65.0899 25.5625 65.825C25.5625 66.0147 25.5863 66.2044 25.5958 66.3941C25.6386 67.134 25.6481 65.2227 25.5958 65.9199C25.5958 66.2613 25.5482 66.5981 25.4959 66.9395C25.4056 67.5182 25.5815 68.1394 25.4959 68.718C25.6686 67.3177 25.6989 65.9035 25.5863 64.4971C25.4908 63.0054 25.2826 61.5231 24.9633 60.0627C24.3871 57.3338 23.6487 54.6416 22.752 52.0002C22.5618 51.431 22.3668 50.8619 22.1623 50.3022C22.2026 50.5965 22.2026 50.8949 22.1623 51.1891C22.1171 51.4846 22.1171 51.7852 22.1623 52.0807L22.1671 52.0855Z" fill="#EDB3BE"/>
<path id="Vector_4" d="M21.9104 33.7648C21.3986 34.7053 20.9675 35.6874 20.6217 36.7005C19.883 38.8965 19.5385 41.2051 19.604 43.5205C19.604 45.8918 20.2318 48.1777 22.0198 49.8566C23.3125 51.011 24.8628 51.8408 26.5419 52.2772C28.221 52.7136 29.9802 52.7438 31.6734 52.3655C35.1353 51.5071 37.7223 48.7516 39.5246 45.8111C39.6293 45.6451 39.5246 45.1187 39.5246 44.9243C39.5246 44.7298 39.4105 44.2034 39.5246 44.0326C38.0314 46.4704 36.0436 48.7753 33.4044 49.9705C30.2943 51.3933 26.6231 50.9759 23.689 49.3017C22.6663 48.7371 21.7829 47.9519 21.1034 47.0034C20.4238 46.0549 19.9652 44.9671 19.761 43.8192C19.7134 43.5631 19.6801 43.3023 19.6563 43.0367C19.6563 42.8897 19.6563 42.7426 19.6278 42.6003C19.5803 41.9411 19.5612 44.0232 19.6278 43.2122C19.6706 42.6715 19.7134 42.1403 19.8038 41.6044C19.9687 40.6383 20.2104 39.6867 20.5266 38.7588C20.8829 37.6435 21.3463 36.565 21.9104 35.5385C22.0103 35.363 21.9104 34.8556 21.9104 34.6516C21.9104 34.4477 21.801 33.945 21.9104 33.76V33.7648Z" fill="#EDB3BE"/>
<path id="Vector_5" d="M61.314 52.446C58.28 56.1264 55.4125 60.1813 53.4057 64.5114C52.689 65.9147 52.2071 67.4254 51.979 68.9837C51.9172 69.5718 52.0408 70.1789 51.979 70.7622C52.2929 67.836 53.8812 65.0378 55.3982 62.5621C56.8638 60.157 58.4658 57.8373 60.1965 55.6142C60.5579 55.1399 60.9193 54.6656 61.295 54.2245C61.3996 54.1012 61.295 53.4989 61.295 53.3329C61.295 53.1669 61.1808 52.5694 61.295 52.446H61.314Z" fill="#EDB3BE"/>
<path id="Vector_6" d="M63.8154 44.2177C63.9994 47.2151 64.1754 50.2187 64.3436 53.2287C64.4673 55.5147 64.591 57.8007 64.6956 60.0866C64.7385 60.9972 64.7765 61.9031 64.8051 62.8137L64.8336 63.8428V63.9567C64.8336 64.2128 64.8336 63.2832 64.8336 63.4207C64.8409 63.5487 64.8409 63.6769 64.8336 63.8049C64.8336 64.1621 64.8193 64.5178 64.7908 64.872C64.6718 67.3334 64.453 69.7949 64.1675 72.2421C64.1009 72.8302 64.2341 73.4372 64.1675 74.0206C64.7231 69.5361 64.9347 65.0158 64.8003 60.4992C64.6243 55.7993 64.3245 51.0993 64.0628 46.404C63.9867 45.1093 63.9058 43.8145 63.8297 42.5198C63.8535 42.9419 63.7916 43.7007 63.8297 44.2366L63.8154 44.2177Z" fill="#EDB3BE"/>
<path id="Vector_7" d="M53.4536 13.2197C53.3887 13.3832 53.3517 13.5563 53.3443 13.7319C53.2729 14.5097 53.2729 15.2923 53.3443 16.0701C53.544 17.9671 54.9088 19.6365 56.1642 20.955C58.0347 22.9075 60.3566 24.373 62.9265 25.2234C64.8287 25.8826 66.9211 26.1719 68.7852 27.0019C69.5642 27.4179 70.2747 27.9506 70.8919 28.5812C71.3937 28.9837 71.8272 29.4641 72.1758 30.004C72.6779 30.9005 73.0115 31.881 73.1602 32.897C73.4865 34.8558 73.633 36.8401 73.5977 38.8254C73.5977 42.5246 73.3647 46.2334 73.2411 49.9326C73.1365 53.1719 73.0414 56.4159 72.9938 59.6599C72.9938 60.063 72.9938 60.4709 72.9938 60.874C72.9938 60.9594 72.9938 61.5142 72.9938 61.1965C73.0842 54.9267 73.3885 48.6711 73.5597 42.406C73.631 39.7928 73.6596 37.1891 73.5216 34.5522C73.4761 33.0003 73.2625 31.4579 72.8844 29.9518C72.6735 29.1128 72.2878 28.3275 71.7526 27.6469C71.3364 27.204 70.8899 26.7904 70.4163 26.409C70.1048 26.0871 69.7623 25.7965 69.3939 25.5412C68.6736 25.1482 67.9045 24.8516 67.1065 24.659C64.9238 24.033 62.7125 23.5208 60.6534 22.5248C57.9147 21.2 55.6383 19.085 54.1194 16.4542C53.7411 15.7603 53.4869 15.006 53.368 14.2252C53.2919 13.7509 53.3347 15.7049 53.368 15.5721C53.4013 15.4393 53.368 15.444 53.368 15.3776C53.368 15.3112 53.3918 15.2448 53.4061 15.1784C53.4156 15.1158 53.4349 15.055 53.4631 14.9982C53.5084 14.7043 53.5084 14.4053 53.4631 14.1113C53.4156 13.816 53.4156 13.515 53.4631 13.2197H53.4536Z" fill="#EDB3BE"/>
<path id="Vector_8" d="M42.0878 44.7159C42.059 46.1228 42.325 47.5202 42.8687 48.8187C43.4124 50.1171 44.2219 51.2881 45.2454 52.2567C47.3664 54.1775 50.31 54.9364 53.1205 55.0123C55.6028 55.0834 58.1042 54.4194 59.8875 52.6172C61.7896 50.7201 62.56 48.0358 62.8739 45.4558C62.9452 44.8677 62.8025 44.2606 62.8739 43.6773C62.5981 45.9111 61.9799 48.197 60.596 50.0182C59.907 50.9076 59.0418 51.6461 58.0544 52.1879C57.0669 52.7297 55.9783 53.063 54.8562 53.1673C51.9837 53.5157 49.0757 52.9213 46.5722 51.4742C44.8783 50.4103 43.5689 48.8353 42.8344 46.9781C42.549 46.2606 42.3402 45.5151 42.2114 44.7539C42.1734 44.5072 42.1401 44.2796 42.1163 44.014C42.0878 43.6441 42.1163 43.4401 42.1163 44.2416C42.1163 44.1183 42.1163 43.6298 42.1163 43.6204C42.1543 43.9846 42.1543 44.3517 42.1163 44.7159H42.0878Z" fill="#EDB3BE"/>
</g>
</svg>
