<svg width="20" height="20" viewBox="0 0 20 20" fill="none" xmlns="http://www.w3.org/2000/svg">
<g id="Group">
<path id="Vector" d="M18.041 13.6399L15.2128 13.3167C14.534 13.2391 13.866 13.4729 13.3867 13.9513L11.3384 15.9996C8.18793 14.3964 5.60443 11.8245 4.00123 8.66237L6.06118 6.60241C6.53964 6.12395 6.77344 5.45594 6.69578 4.77625L6.37264 1.97062C6.23904 0.845863 5.29298 0 4.15737 0H2.23102C0.972667 0 -0.0735928 1.04627 0.00406253 2.30462C0.59441 11.8129 8.19796 19.4056 17.6953 19.9959C18.9536 20.0736 19.9999 19.0273 19.9999 17.769V15.8426C20.0108 14.7179 19.1649 13.7718 18.0401 13.6382L18.041 13.6399Z" fill="white"/>
</g>
</svg>
