<svg width="40" height="41" viewBox="0 0 40 41" fill="none" xmlns="http://www.w3.org/2000/svg">
<path d="M20 40.2839C31.0457 40.2839 40 31.3296 40 20.2839C40 9.23824 31.0457 0.283936 20 0.283936C8.9543 0.283936 0 9.23824 0 20.2839C0 31.3296 8.9543 40.2839 20 40.2839Z" fill="#EDB3BE"/>
<path d="M19.9903 7.51405H26.2119C27.5485 7.50567 28.8574 7.89479 29.9722 8.63191C31.087 9.36904 31.9574 10.4209 32.4726 11.6538C32.8221 12.4613 33.0015 13.332 33 14.2118V26.8163C32.9892 28.1293 32.5954 29.4108 31.8667 30.5034C31.1381 31.596 30.1063 32.4522 28.8979 32.9672C28.0451 33.3285 27.1283 33.5145 26.2021 33.5139H13.71C11.9243 33.5062 10.2148 32.7903 8.95666 31.5236C7.69857 30.2568 6.99484 28.5427 7.00003 26.7577V14.2215C7.00595 12.8235 7.44754 11.4621 8.26324 10.3265C9.07894 9.1909 10.2283 8.33753 11.5515 7.88506C12.2639 7.63561 13.0138 7.51012 13.7687 7.51405H19.9903ZM19.9903 9.7499H13.7491C13.2368 9.74603 12.7276 9.83195 12.2449 10.0038C11.3453 10.3108 10.5659 10.8946 10.0185 11.6715C9.4711 12.4485 9.18375 13.3787 9.19762 14.3289V26.787C9.204 27.1521 9.24986 27.5155 9.33437 27.8707C9.57187 28.8559 10.1351 29.7321 10.9327 30.3576C11.7304 30.9831 12.7158 31.3212 13.7296 31.3172H26.2119C26.6 31.3157 26.9868 31.2699 27.3645 31.1805C28.3277 30.9367 29.1839 30.3831 29.8016 29.6052C30.4193 28.8272 30.7641 27.8679 30.783 26.8748C30.783 22.6571 30.783 18.4393 30.783 14.1824C30.7815 13.721 30.7055 13.2627 30.5582 12.8253C30.2553 11.9137 29.6698 11.1223 28.8865 10.5658C28.1033 10.0093 27.163 9.71665 26.2021 9.73035L19.9903 9.7499Z" fill="white"/>
<path d="M19.9909 26.5139C18.8034 26.5121 17.6432 26.158 16.6571 25.4964C15.671 24.8348 14.9035 23.8955 14.4516 22.7975C13.9996 21.6994 13.8837 20.4919 14.1184 19.3278C14.3531 18.1638 14.928 17.0956 15.7701 16.2585C16.6123 15.4214 17.684 14.853 18.8494 14.6253C20.0148 14.3976 21.2216 14.5208 22.317 14.9794C23.4123 15.4379 24.347 16.2112 25.0026 17.2012C25.6582 18.1913 26.0053 19.3536 25.9999 20.5411C25.9904 22.1285 25.353 23.6477 24.2271 24.7668C23.1012 25.8859 21.5783 26.5139 19.9909 26.5139ZM19.9909 16.3601C19.1683 16.3619 18.3647 16.6073 17.6815 17.0654C16.9983 17.5236 16.4661 18.1738 16.1522 18.9341C15.8382 19.6944 15.7566 20.5306 15.9175 21.3373C16.0784 22.144 16.4747 22.8849 17.0564 23.4666C17.638 24.0482 18.3789 24.4445 19.1856 24.6054C19.9922 24.7663 20.8286 24.6847 21.5889 24.3707C22.3491 24.0568 22.9993 23.5246 23.4575 22.8414C23.9156 22.1582 24.161 21.3546 24.1628 20.532C24.164 19.9846 24.0572 19.4423 23.8485 18.9362C23.6399 18.4301 23.3334 17.9701 22.9468 17.5826C22.5601 17.195 22.1007 16.8876 21.595 16.6778C21.0894 16.468 20.5474 16.3601 20 16.3601H19.9909Z" fill="white"/>
<path d="M28.0001 13.014C28.0001 13.3115 27.9116 13.6023 27.7459 13.8494C27.5802 14.0965 27.3447 14.2887 27.0695 14.4016C26.7943 14.5146 26.4916 14.5431 26.2001 14.4836C25.9086 14.4241 25.6414 14.2793 25.4324 14.0676C25.2234 13.8558 25.0821 13.5868 25.0265 13.2945C24.9708 13.0022 25.0034 12.7 25.1199 12.4263C25.2365 12.1526 25.4317 11.9197 25.681 11.7572C25.9302 11.5948 26.2222 11.5102 26.5197 11.514C26.7154 11.5153 26.9089 11.5551 27.0892 11.6312C27.2695 11.7073 27.4331 11.8181 27.5706 11.9574C27.7081 12.0967 27.8167 12.2617 27.8904 12.443C27.9641 12.6243 28.0014 12.8183 28.0001 13.014Z" fill="white"/>
</svg>
