<?xml version="1.0" encoding="utf-8"?><svg width="40" height="41" fill="none" xmlns="http://www.w3.org/2000/svg" viewBox="0 0 40 41"><path d="M20 40.284c11.046 0 20-8.954 20-20s-8.954-20-20-20-20 8.954-20 20 8.954 20 20 20z" fill="#EDB3BE"/><path d="M19.99 7.514h6.222a6.741 6.741 0 016.26 4.14c.35.807.53 1.678.528 2.558v12.604a6.745 6.745 0 01-4.102 6.151 6.9 6.9 0 01-2.696.547H13.71A6.74 6.74 0 017 26.758V14.222a6.725 6.725 0 014.552-6.337 6.605 6.605 0 012.217-.37h6.221zm0 2.236h-6.24a4.386 4.386 0 00-1.505.254 4.502 4.502 0 00-3.047 4.325v12.458c.006.365.052.729.136 1.084a4.501 4.501 0 004.396 3.446h12.482a5.09 5.09 0 001.152-.137 4.532 4.532 0 003.419-4.305V14.182a4.296 4.296 0 00-.225-1.357 4.52 4.52 0 00-4.356-3.095l-6.212.02z" fill="#fff"/><path d="M19.99 26.514A6 6 0 1126 20.54a6.009 6.009 0 01-6.01 5.973zm0-10.154a4.163 4.163 0 10.01 0h-.01zM28 13.014a1.5 1.5 0 11-1.48-1.5 1.49 1.49 0 011.48 1.5z" fill="#fff"/></svg>