<?xml version="1.0" encoding="utf-8"?><svg width="40" height="41" fill="none" xmlns="http://www.w3.org/2000/svg" viewBox="0 0 40 41"><path d="M20 40.284c11.046 0 20-8.954 20-20s-8.954-20-20-20-20 8.954-20 20 8.954 20 20 20z" fill="#84B2D1"/><path d="M19.028 29.378l-2.302 2.08-.595.53a1.59 1.59 0 01-1.321.427 1.596 1.596 0 01-1.153-.767 6.73 6.73 0 01-.525-1.24 534.298 534.298 0 01-1.727-5.588.4.4 0 00-.283-.28l-4.816-1.6a2.808 2.808 0 01-1.222-.82 1.745 1.745 0 01-.434-1.455 1.74 1.74 0 01.879-1.244c.544-.305 1.111-.57 1.696-.79 5.27-2.212 10.551-4.418 15.842-6.618l5.463-2.26a2.577 2.577 0 011.514-.25 1.9 1.9 0 011.25.785 1.86 1.86 0 01.295 1.435c-.181 1.15-.424 2.29-.656 3.43-.673 3.412-1.346 6.818-2.02 10.216-.413 2.13-.807 4.28-1.282 6.399-.09.419-.308.8-.624 1.094a2.13 2.13 0 01-1.143.545 2.529 2.529 0 01-2.16-.47c-1.495-1.15-3.03-2.279-4.494-3.419l-.182-.14zm-3.816.64l.262-.22 3.252-2.949c.151-.13.232-.13.373 0 1.925 1.466 3.857 2.933 5.796 4.399.088.072.186.13.293.17a.336.336 0 00.437-.124.328.328 0 00.047-.156l1.273-6.458 2.393-12.147c.06-.29.11-.59.181-.95L6.973 20.981l.191.09 5.725 1.9a.438.438 0 00.313-.05l12.36-7.579c.117-.073.247-.123.383-.15.09 0 .242 0 .283.07a.417.417 0 010 .33c-.066.12-.155.226-.263.31l-1.737 1.59-8.077 7.498a.498.498 0 00-.142.27c-.141.85-.282 1.7-.414 2.549-.13.85-.262 1.43-.383 2.21z" fill="#fff"/></svg>