<?xml version="1.0" encoding="utf-8"?><svg width="40" height="41" fill="none" xmlns="http://www.w3.org/2000/svg" viewBox="0 0 40 41"><path d="M20 40.284c11.046 0 20-8.954 20-20s-8.954-20-20-20-20 8.954-20 20 8.954 20 20 20z" fill="#4C6E9A"/><path d="M23.021 19.52c.087-.068.168-.142.245-.22a15.442 15.442 0 002.042-3.082c.245-.463.45-.936.684-1.4.113-.241.245-.473.378-.704.132-.23.326-.42.56-.55.234-.13.5-.194.768-.185h4.788c.187-.004.374.023.552.08a1.272 1.272 0 01.809.658 1.235 1.235 0 01.028 1.034 4.568 4.568 0 01-.602 1.37c-.787 1.167-1.624 2.305-2.45 3.443l-1.022 1.44a.292.292 0 00-.072.335c.017.037.041.07.072.098.398.402.797.815 1.184 1.228.664.685 1.348 1.36 2.043 2.074.297.346.547.729.745 1.138a1.495 1.495 0 01-.353 1.975 1.541 1.541 0 01-.668.3 3.373 3.373 0 01-.95.132h-3.665a2.821 2.821 0 01-1.859-.665c-.694-.584-1.337-1.228-2.042-1.852l-.745-.705c-.163-.141-.306-.101-.357.09-.052.192-.133.645-.195 1.007 0 .171-.05.352-.102.524-.05.233-.179.444-.363.598a1.112 1.112 0 01-.658.258h-3.512a7.573 7.573 0 01-4.32-1.47 11.913 11.913 0 01-2.296-2.276 41.482 41.482 0 01-4.3-6.595 61.692 61.692 0 01-1.194-2.306 1.893 1.893 0 01-.184-.675 1.103 1.103 0 01.273-.89 1.131 1.131 0 01.86-.378c1.471 0 2.931-.091 4.402-.05a1.664 1.664 0 011.276.775c.136.203.252.419.347.644a26.682 26.682 0 002.308 4.028c.163.241.367.463.551.684.053.059.111.113.174.161.04-.083.072-.17.091-.261a13.05 13.05 0 000-3.454.751.751 0 00-.19-.406.768.768 0 00-.392-.229 2.36 2.36 0 01-.347-.12.82.82 0 01-.496-.458.797.797 0 01.027-.67c.17-.363.452-.663.806-.856a3.093 3.093 0 011.593-.453h3.635c.26.012.518.06.766.14.37.09.7.297.938.59.239.294.372.656.379 1.032v4.964l.01.11zM7.644 14.84c.082.191.143.332.215.473a57.489 57.489 0 003.349 5.72 20.89 20.89 0 002.675 3.372 6.428 6.428 0 003.471 1.893c.813.104 1.631.158 2.45.161h1.532c0-.14 0-.281.052-.422.049-.55.25-1.076.581-1.52a1.614 1.614 0 011.134-.659 1.645 1.645 0 011.256.386c.46.413.908.836 1.358 1.269.449.433.796.785 1.215 1.168.29.28.676.443 1.082.453h4.084c.256 0 .297-.09.154-.302a8.36 8.36 0 00-.715-1.007c-.572-.624-1.185-1.208-1.767-1.822l-1.388-1.47a1.39 1.39 0 01-.215-1.46c.074-.206.174-.403.296-.584.45-.625.94-1.229 1.379-1.853.756-1.068 1.5-2.135 2.236-3.222a3.26 3.26 0 00.265-.594h-.929l-3.533.07c-.204 0-.296.1-.388.272-.428.886-.847 1.782-1.327 2.638a11.143 11.143 0 01-2.042 2.8 3.712 3.712 0 01-.888.573.951.951 0 01-1.021-.13 1.746 1.746 0 01-.745-1.259c0-.484-.072-1.007-.082-1.45v-3.514c0-.423-.103-.534-.542-.544-1.082 0-2.154-.07-3.236-.09a4.505 4.505 0 00-.521.08 2.31 2.31 0 01.715 1.62 25.277 25.277 0 010 3.173c-.02.468-.126.93-.317 1.359-.07.207-.192.394-.356.542a1.312 1.312 0 01-1.231.293 1.312 1.312 0 01-.567-.322 6.187 6.187 0 01-1.113-1.188 22.7 22.7 0 01-2.471-4.32.937.937 0 00-.385-.521.96.96 0 00-.636-.153H8.195c-.163.05-.336.08-.55.09z" fill="#fff"/></svg>