<svg width="87" height="86" viewBox="0 0 87 86" fill="none" xmlns="http://www.w3.org/2000/svg">
<path d="M43.2338 84.4922C66.183 84.4922 84.787 65.9382 84.787 43.0508C84.787 20.1633 66.183 1.60938 43.2338 1.60938C20.2847 1.60938 1.68066 20.1633 1.68066 43.0508C1.68066 65.9382 20.2847 84.4922 43.2338 84.4922Z" stroke="white" stroke-width="2.5" stroke-miterlimit="10"/>
<path d="M18.2013 15.5243C20.7993 14.6802 23.4991 14.1873 26.2285 14.0588C28.2401 13.964 30.361 14.0873 32.2299 14.8888C34.0988 15.6903 35.2258 17.1937 35.8726 19.1193C36.6053 21.5354 37.0146 24.0374 37.09 26.5605C37.2374 29.0836 37.1993 31.6067 37.166 34.1487C37.0733 35.8083 37.0971 37.4723 37.2374 39.1285C37.2802 39.47 37.304 39.8447 37.6463 39.9917C38.3709 40.205 39.1279 40.2869 39.8814 40.2335C40.9493 40.2605 42.0179 40.2256 43.0818 40.1292C43.9557 40.0908 44.82 39.9312 45.6498 39.655C46.3964 39.3609 46.249 38.8155 46.2204 38.0757C46.1919 37.3358 46.1871 36.3351 45.5927 35.8087C45.3532 35.6414 45.0826 35.5233 44.7969 35.4614C44.5111 35.3995 44.2158 35.3951 43.9283 35.4482C43.8903 35.4482 43.9521 36.6339 43.9283 36.6339C44.6701 36.577 45.4976 36.6339 45.8876 37.3738C46.1249 37.9375 46.2368 38.5459 46.2157 39.157V37.9903C46.1681 38.4313 45.3502 38.5784 45.0221 38.6543C44.1391 38.8433 43.2421 38.9591 42.34 39.0005C41.4092 39.0606 40.4759 39.0733 39.5438 39.0384C38.9731 39.0384 38.1171 39.0669 37.6035 38.7918C37.323 38.6401 37.2897 38.3176 37.2469 38.0283C37.1787 37.4681 37.1486 36.904 37.1565 36.3398C37.1565 34.2673 37.2231 32.1948 37.2136 30.1175C37.2136 27.8694 37.1565 25.6167 36.933 23.3782C36.7825 21.2191 36.3146 19.0938 35.5444 17.0704C34.0417 13.4517 30.0043 12.7451 26.471 12.8779C23.6593 12.9859 20.8763 13.4823 18.2013 14.3529C18.0729 14.3908 18.3107 15.5006 18.2013 15.5385V15.5243Z" fill="#4D6E9B"/>
<path d="M32.2632 48.4811C32.8366 48.3187 33.395 48.1077 33.9324 47.8504C34.7296 47.4336 35.4817 46.9362 36.1769 46.3659C37.6036 45.3036 39.6484 44.5353 41.4365 45.0902C41.6475 45.1571 41.8527 45.2412 42.0499 45.3415C42.145 45.3889 42.7252 45.849 42.787 45.8158C42.8488 45.7826 42.8393 45.7494 42.8631 45.7352C43.0896 45.5924 43.3057 45.4339 43.5099 45.2609C44.4103 44.6998 45.4657 44.4375 46.5248 44.5115C48.7836 44.6586 50.7239 46.1335 52.2742 47.6607V46.475C47.0287 47.23 41.7381 47.6309 36.4385 47.6749C35.0347 47.7338 33.6296 47.5981 32.2632 47.2718C32.3631 47.3003 32.1491 48.4243 32.2632 48.4575C33.439 48.7463 34.6476 48.8803 35.8583 48.8558C37.5037 48.889 39.1491 48.8274 40.7897 48.7373C43.9474 48.557 47.0955 48.263 50.2341 47.9026L52.2742 47.6607C52.3052 47.2661 52.3052 46.8696 52.2742 46.475C50.1009 44.3313 46.8149 42.2493 43.7619 43.9282C43.4816 44.0797 43.2185 44.261 42.9772 44.4689C42.9439 44.4973 42.8536 44.6111 42.8108 44.6206C42.6919 44.6491 42.2639 44.2697 42.126 44.1938C40.3855 43.2453 38.2456 43.8618 36.662 44.8436C35.8393 45.3558 35.1735 46.0434 34.2843 46.4845C33.6371 46.8176 32.9565 47.0815 32.2537 47.2718C32.1586 47.324 32.3535 48.4574 32.2632 48.4811Z" fill="#4D6E9B"/>
<path d="M46.8245 52.1188C44.1757 53.1764 40.9895 53.1006 38.5452 51.5877C37.5941 50.9948 36.9331 50.1317 36.0914 49.4013C35.6159 49.0029 35.069 48.7089 34.5792 48.3532C33.8849 47.8457 33.1525 47.3287 32.2633 47.2908C32.2633 47.2908 32.2395 48.4764 32.2633 48.4764C33.0953 48.5838 33.8766 48.9355 34.5078 49.4866C35.0214 49.8613 35.6111 50.1696 36.0914 50.587C36.9331 51.3173 37.5751 52.1805 38.5452 52.7733C40.9895 54.2862 44.1757 54.3621 46.8245 53.3045C46.9671 53.2428 46.6961 52.1663 46.8245 52.1188Z" fill="#4D6E9B"/>
<path d="M18.8856 21.7943C20.1842 22.3682 21.5554 22.7624 22.9611 22.9657C26.6235 23.5533 30.3656 23.426 33.9794 22.591C34.0698 22.591 33.9034 21.4243 33.9794 21.4054C30.3656 22.2403 26.6235 22.3676 22.9611 21.7801C21.5554 21.5767 20.1842 21.1826 18.8856 20.6086C19.0331 20.6798 18.7239 21.7137 18.8856 21.7943Z" fill="#4D6E9B"/>
<path d="M47.818 21.7943C48.9913 22.1989 50.2128 22.4476 51.4512 22.5341C54.3215 22.8055 57.2149 22.3775 59.8826 21.2868C61.9294 20.4226 63.8067 19.204 65.4275 17.6871C65.4893 17.6302 65.4275 17.1844 65.4275 17.0943C65.4275 17.0042 65.3562 16.5631 65.4275 16.5015C63.2767 18.5203 60.6632 19.9833 57.8149 20.7629C54.9667 21.5425 51.9705 21.6149 49.0877 20.9738C48.6567 20.881 48.2325 20.759 47.818 20.6086C47.9369 20.6561 47.6801 21.7421 47.818 21.7943Z" fill="#4D6E9B"/>
<path d="M18.315 15.8184C17.8547 20.3174 17.7863 24.8478 18.1106 29.3587C18.2059 30.8662 18.4238 32.3634 18.7621 33.8357C19.0776 35.0053 19.5226 36.1363 20.0888 37.2078C21.5392 40.1862 22.9421 43.1883 24.4401 46.143C26.0025 49.3648 27.7803 52.4783 29.7614 55.4623C31.35 57.8036 33.4201 59.7808 35.8341 61.2626C38.7085 63.0964 42.1233 63.8992 45.5162 63.539C50.0767 62.9604 53.7574 60.1575 57.1528 57.2693C63.0448 52.2705 68.0904 45.9675 69.3649 38.161C69.5123 37.2647 69.6074 36.3636 69.6645 35.4577C69.6645 35.102 69.6407 34.5946 69.6645 34.3147C69.4445 37.934 68.4625 41.4665 66.7826 44.6822C64.9751 48.0005 62.6509 51.0116 59.8967 53.6032C58.3942 55.0537 56.8164 56.4247 55.1698 57.7104C53.4199 59.172 51.4755 60.385 49.3919 61.3148C46.0779 62.7043 42.3618 62.8041 38.9775 61.5946C36.2698 60.5919 33.8293 58.9823 31.8443 56.8899C29.7662 54.6988 28.2302 51.9622 26.775 49.3443C25.063 46.2568 23.508 43.084 21.9767 39.9064C21.3538 38.6116 20.7356 37.3122 20.1078 36.0222C19.5594 34.9856 19.1242 33.8932 18.8096 32.7639C18.1414 29.7528 17.8648 26.6684 17.9869 23.5868C18.0202 21.4953 18.1201 19.4038 18.3055 17.3171L18.3341 17.004C18.3721 16.6151 18.296 16.212 18.3341 15.8184H18.315Z" fill="#4D6E9B"/>
<path d="M11.7953 66.271C14.3977 65.6964 16.8404 64.5549 18.9484 62.9281C21.0564 61.3014 22.7775 59.2297 23.9883 56.8615C25.0989 54.3525 25.6614 51.6364 25.6384 48.8938C25.6384 48.614 25.6384 48.3343 25.6384 48.0544C25.6384 47.8268 25.6384 47.8837 25.6384 48.0544C25.5861 52.6169 24.0168 57.0655 20.7213 60.2952C18.6612 62.2826 16.1724 63.7736 13.4454 64.6538C12.9095 64.8399 12.3613 64.9888 11.8048 65.0996C11.724 65.0996 11.8666 66.2757 11.8048 66.2852L11.7953 66.271Z" fill="#4D6E9B"/>
<path d="M68.0573 73.5274C65.5369 71.6683 63.6727 68.6282 62.7882 65.683C62.587 65.0267 62.4282 64.3582 62.3127 63.6816C62.2556 63.3212 62.2128 62.9607 62.1843 62.5955C62.1843 62.3631 62.151 62.1213 62.1415 61.8936C62.132 61.666 62.1415 61.9221 62.1415 61.9553C62.1415 61.813 62.1415 61.6707 62.1415 61.5284C62.3254 59.6283 62.6754 57.7478 63.1877 55.9084C63.7488 53.537 64.3337 51.1657 65.1231 48.8703C65.2778 48.2514 65.523 47.6585 65.8507 47.1107C66.0409 46.8546 65.6653 46.1622 65.8507 45.925C65.563 46.4029 65.3438 46.9186 65.1992 47.457C64.4023 49.8423 63.7309 52.2675 63.1877 54.7227C62.6693 56.5754 62.3176 58.4705 62.1367 60.3855C62.0375 61.8298 62.0837 63.2804 62.2746 64.7155C62.6692 67.2946 63.6931 69.7376 65.2563 71.8295C66.0327 72.9245 66.9651 73.9007 68.024 74.7273C67.8385 74.5898 68.2189 73.6839 68.024 73.5416L68.0573 73.5274Z" fill="#4D6E9B"/>
</svg>
