<?xml version="1.0" encoding="utf-8"?><svg viewBox="0 0 332 749" xmlns="http://www.w3.org/2000/svg" xmlns:xlink="http://www.w3.org/1999/xlink"><style>:root>svg{display:none}:root>svg:target{display:block}</style><svg fill="none" viewBox="0 0 22 20" id="Star--red" xmlns="http://www.w3.org/2000/svg"><path d="M11 0l2.47 7.6h7.992l-6.466 4.698 2.47 7.601L11 15.202l-6.466 4.697 2.47-7.6L.538 7.6H8.53L11 0z" fill="#FFB906"/></svg><svg fill="none" viewBox="0 0 22 20" id="Star--red-2" xmlns="http://www.w3.org/2000/svg"><path d="M11 0l2.47 7.6h7.992l-6.466 4.698 2.47 7.601L11 15.202l-6.466 4.697 2.47-7.6L.538 7.6H8.53L11 0z" fill="#CBCECF"/></svg><svg fill="none" viewBox="0 0 20 20" id="i-close" xmlns="http://www.w3.org/2000/svg"><path d="M2.095 0l17.706 17.883L17.705 20 0 2.117 2.095 0z" fill="#fff"/><path d="M17.903 0L.197 17.883 2.293 20 20 2.117 17.903 0z" fill="#fff"/></svg><svg fill="none" viewBox="0 0 15 21" id="i-play-2" xmlns="http://www.w3.org/2000/svg"><path d="M15 10.5L0 21V0l15 10.5z" fill="#fff"/></svg><svg fill="none" viewBox="0 0 33 2" id="line" xmlns="http://www.w3.org/2000/svg"><path fill="#5E6266" d="M0 0h33v2H0z"/></svg><svg fill="none" viewBox="0 0 105 27" id="operations__picture__indicator--1" xmlns="http://www.w3.org/2000/svg"><path d="M104.5 1H54.576L1 26" stroke="#5F6366" stroke-width="2"/></svg><svg fill="none" viewBox="0 0 332 58" id="operations__picture__indicator--2" xmlns="http://www.w3.org/2000/svg"><path d="M332 57h-49.924L1 1" stroke="#5F6366" stroke-width="2"/></svg><svg fill="none" viewBox="0 0 240 640" id="operations__picture__indicator--3" xmlns="http://www.w3.org/2000/svg"><path d="M240 638.5h-49.924L1 .5" stroke="#5F6366" stroke-width="2"/></svg><svg fill="none" viewBox="0 0 240 749" id="operations__picture__indicator--4" xmlns="http://www.w3.org/2000/svg"><path d="M239.5 748h-49.924L1 1" stroke="#5F6366" stroke-width="2"/></svg><svg fill="none" viewBox="0 0 47 2" id="reviews-services__line" xmlns="http://www.w3.org/2000/svg"><path fill="#5F6366" d="M0 0h47v2H0z"/></svg><svg fill="none" viewBox="0 0 16 7" id="select2-selection__arrow" xmlns="http://www.w3.org/2000/svg"><path d="M8 7L0 0h16L8 7z" fill="#4C6D9A"/></svg><svg fill="none" viewBox="0 0 16 7" id="select2-selection__arrow--black" xmlns="http://www.w3.org/2000/svg"><path d="M8 7L0 0h16L8 7z" fill="#000"/></svg></svg>