<?xml version="1.0" encoding="utf-8"?><svg viewBox="0 0 332 749" xmlns="http://www.w3.org/2000/svg" xmlns:xlink="http://www.w3.org/1999/xlink"><style>:root>svg{display:none}:root>svg:target{display:block}</style><svg fill="none" viewBox="0 0 22 20" id="Star--red" xmlns="http://www.w3.org/2000/svg"><path d="M11 0l2.47 7.6h7.992l-6.466 4.698 2.47 7.601L11 15.202l-6.466 4.697 2.47-7.6L.538 7.6H8.53L11 0z" fill="#FFB906"/></svg><svg fill="none" viewBox="0 0 22 20" id="Star--red-2" xmlns="http://www.w3.org/2000/svg"><path d="M11 0l2.47 7.6h7.992l-6.466 4.698 2.47 7.601L11 15.202l-6.466 4.697 2.47-7.6L.538 7.6H8.53L11 0z" fill="#CBCECF"/></svg><svg fill="none" viewBox="0 0 20 20" id="i-close" xmlns="http://www.w3.org/2000/svg"><path d="M2.095 0l17.706 17.883L17.705 20 0 2.117 2.095 0z" fill="#fff"/><path d="M17.903 0L.197 17.883 2.293 20 20 2.117 17.903 0z" fill="#fff"/></svg><svg fill="none" viewBox="0 0 15 21" id="i-play-2" xmlns="http://www.w3.org/2000/svg"><path d="M15 10.5L0 21V0l15 10.5z" fill="#fff"/></svg><svg fill="none" viewBox="0 0 40 41" id="instagram" xmlns="http://www.w3.org/2000/svg"><path d="M20 40.284c11.046 0 20-8.954 20-20s-8.954-20-20-20-20 8.954-20 20 8.954 20 20 20z" fill="#EDB3BE"/><path d="M19.99 7.514h6.222a6.741 6.741 0 016.26 4.14c.35.807.53 1.678.528 2.558v12.604a6.745 6.745 0 01-4.102 6.151 6.9 6.9 0 01-2.696.547H13.71A6.74 6.74 0 017 26.758V14.222a6.725 6.725 0 014.552-6.337 6.605 6.605 0 012.217-.37h6.221zm0 2.236h-6.24a4.386 4.386 0 00-1.505.254 4.502 4.502 0 00-3.047 4.325v12.458c.006.365.052.729.136 1.084a4.501 4.501 0 004.396 3.446h12.482a5.09 5.09 0 001.152-.137 4.532 4.532 0 003.419-4.305V14.182a4.296 4.296 0 00-.225-1.357 4.52 4.52 0 00-4.356-3.095l-6.212.02z" fill="#fff"/><path d="M19.99 26.514A6 6 0 1126 20.54a6.009 6.009 0 01-6.01 5.973zm0-10.154a4.163 4.163 0 10.01 0h-.01zM28 13.014a1.5 1.5 0 11-1.48-1.5 1.49 1.49 0 011.48 1.5z" fill="#fff"/></svg><svg fill="none" viewBox="0 0 33 2" id="line" xmlns="http://www.w3.org/2000/svg"><path fill="#5E6266" d="M0 0h33v2H0z"/></svg><svg fill="none" viewBox="0 0 105 27" id="operations__picture__indicator--1" xmlns="http://www.w3.org/2000/svg"><path d="M104.5 1H54.576L1 26" stroke="#5F6366" stroke-width="2"/></svg><svg fill="none" viewBox="0 0 332 58" id="operations__picture__indicator--2" xmlns="http://www.w3.org/2000/svg"><path d="M332 57h-49.924L1 1" stroke="#5F6366" stroke-width="2"/></svg><svg fill="none" viewBox="0 0 240 640" id="operations__picture__indicator--3" xmlns="http://www.w3.org/2000/svg"><path d="M240 638.5h-49.924L1 .5" stroke="#5F6366" stroke-width="2"/></svg><svg fill="none" viewBox="0 0 240 749" id="operations__picture__indicator--4" xmlns="http://www.w3.org/2000/svg"><path d="M239.5 748h-49.924L1 1" stroke="#5F6366" stroke-width="2"/></svg><svg fill="none" viewBox="0 0 47 2" id="reviews-services__line" xmlns="http://www.w3.org/2000/svg"><path fill="#5F6366" d="M0 0h47v2H0z"/></svg><svg fill="none" viewBox="0 0 16 7" id="select2-selection__arrow" xmlns="http://www.w3.org/2000/svg"><path d="M8 7L0 0h16L8 7z" fill="#4C6D9A"/></svg><svg fill="none" viewBox="0 0 16 7" id="select2-selection__arrow--black" xmlns="http://www.w3.org/2000/svg"><path d="M8 7L0 0h16L8 7z" fill="#000"/></svg><svg fill="none" viewBox="0 0 40 41" id="telegram" xmlns="http://www.w3.org/2000/svg"><path d="M20 40.284c11.046 0 20-8.954 20-20s-8.954-20-20-20-20 8.954-20 20 8.954 20 20 20z" fill="#84B2D1"/><path d="M19.028 29.378l-2.302 2.08-.595.53a1.59 1.59 0 01-1.321.427 1.596 1.596 0 01-1.153-.767 6.73 6.73 0 01-.525-1.24 534.298 534.298 0 01-1.727-5.588.4.4 0 00-.283-.28l-4.816-1.6a2.808 2.808 0 01-1.222-.82 1.745 1.745 0 01-.434-1.455 1.74 1.74 0 01.879-1.244c.544-.305 1.111-.57 1.696-.79 5.27-2.212 10.551-4.418 15.842-6.618l5.463-2.26a2.577 2.577 0 011.514-.25 1.9 1.9 0 011.25.785 1.86 1.86 0 01.295 1.435c-.181 1.15-.424 2.29-.656 3.43-.673 3.412-1.346 6.818-2.02 10.216-.413 2.13-.807 4.28-1.282 6.399-.09.419-.308.8-.624 1.094a2.13 2.13 0 01-1.143.545 2.529 2.529 0 01-2.16-.47c-1.495-1.15-3.03-2.279-4.494-3.419l-.182-.14zm-3.816.64l.262-.22 3.252-2.949c.151-.13.232-.13.373 0 1.925 1.466 3.857 2.933 5.796 4.399.088.072.186.13.293.17a.336.336 0 00.437-.124.328.328 0 00.047-.156l1.273-6.458 2.393-12.147c.06-.29.11-.59.181-.95L6.973 20.981l.191.09 5.725 1.9a.438.438 0 00.313-.05l12.36-7.579c.117-.073.247-.123.383-.15.09 0 .242 0 .283.07a.417.417 0 010 .33c-.066.12-.155.226-.263.31l-1.737 1.59-8.077 7.498a.498.498 0 00-.142.27c-.141.85-.282 1.7-.414 2.549-.13.85-.262 1.43-.383 2.21z" fill="#fff"/></svg><svg fill="none" viewBox="0 0 40 41" id="vk2" xmlns="http://www.w3.org/2000/svg"><path d="M20 40.284c11.046 0 20-8.954 20-20s-8.954-20-20-20-20 8.954-20 20 8.954 20 20 20z" fill="#4C6E9A"/><path d="M23.021 19.52c.087-.068.168-.142.245-.22a15.442 15.442 0 002.042-3.082c.245-.463.45-.936.684-1.4.113-.241.245-.473.378-.704.132-.23.326-.42.56-.55.234-.13.5-.194.768-.185h4.788c.187-.004.374.023.552.08a1.272 1.272 0 01.809.658 1.235 1.235 0 01.028 1.034 4.568 4.568 0 01-.602 1.37c-.787 1.167-1.624 2.305-2.45 3.443l-1.022 1.44a.292.292 0 00-.072.335c.017.037.041.07.072.098.398.402.797.815 1.184 1.228.664.685 1.348 1.36 2.043 2.074.297.346.547.729.745 1.138a1.495 1.495 0 01-.353 1.975 1.541 1.541 0 01-.668.3 3.373 3.373 0 01-.95.132h-3.665a2.821 2.821 0 01-1.859-.665c-.694-.584-1.337-1.228-2.042-1.852l-.745-.705c-.163-.141-.306-.101-.357.09-.052.192-.133.645-.195 1.007 0 .171-.05.352-.102.524-.05.233-.179.444-.363.598a1.112 1.112 0 01-.658.258h-3.512a7.573 7.573 0 01-4.32-1.47 11.913 11.913 0 01-2.296-2.276 41.482 41.482 0 01-4.3-6.595 61.692 61.692 0 01-1.194-2.306 1.893 1.893 0 01-.184-.675 1.103 1.103 0 01.273-.89 1.131 1.131 0 01.86-.378c1.471 0 2.931-.091 4.402-.05a1.664 1.664 0 011.276.775c.136.203.252.419.347.644a26.682 26.682 0 002.308 4.028c.163.241.367.463.551.684.053.059.111.113.174.161.04-.083.072-.17.091-.261a13.05 13.05 0 000-3.454.751.751 0 00-.19-.406.768.768 0 00-.392-.229 2.36 2.36 0 01-.347-.12.82.82 0 01-.496-.458.797.797 0 01.027-.67c.17-.363.452-.663.806-.856a3.093 3.093 0 011.593-.453h3.635c.26.012.518.06.766.14.37.09.7.297.938.59.239.294.372.656.379 1.032v4.964l.01.11zM7.644 14.84c.082.191.143.332.215.473a57.489 57.489 0 003.349 5.72 20.89 20.89 0 002.675 3.372 6.428 6.428 0 003.471 1.893c.813.104 1.631.158 2.45.161h1.532c0-.14 0-.281.052-.422.049-.55.25-1.076.581-1.52a1.614 1.614 0 011.134-.659 1.645 1.645 0 011.256.386c.46.413.908.836 1.358 1.269.449.433.796.785 1.215 1.168.29.28.676.443 1.082.453h4.084c.256 0 .297-.09.154-.302a8.36 8.36 0 00-.715-1.007c-.572-.624-1.185-1.208-1.767-1.822l-1.388-1.47a1.39 1.39 0 01-.215-1.46c.074-.206.174-.403.296-.584.45-.625.94-1.229 1.379-1.853.756-1.068 1.5-2.135 2.236-3.222a3.26 3.26 0 00.265-.594h-.929l-3.533.07c-.204 0-.296.1-.388.272-.428.886-.847 1.782-1.327 2.638a11.143 11.143 0 01-2.042 2.8 3.712 3.712 0 01-.888.573.951.951 0 01-1.021-.13 1.746 1.746 0 01-.745-1.259c0-.484-.072-1.007-.082-1.45v-3.514c0-.423-.103-.534-.542-.544-1.082 0-2.154-.07-3.236-.09a4.505 4.505 0 00-.521.08 2.31 2.31 0 01.715 1.62 25.277 25.277 0 010 3.173c-.02.468-.126.93-.317 1.359-.07.207-.192.394-.356.542a1.312 1.312 0 01-1.231.293 1.312 1.312 0 01-.567-.322 6.187 6.187 0 01-1.113-1.188 22.7 22.7 0 01-2.471-4.32.937.937 0 00-.385-.521.96.96 0 00-.636-.153H8.195c-.163.05-.336.08-.55.09z" fill="#fff"/></svg></svg>